<mxfile host="app.diagrams.net" agent="Mozilla/5.0 (Windows NT 10.0; Win64; x64) AppleWebKit/537.36 (KHTML, like Gecko) Chrome/139.0.0.0 Safari/537.36 Edg/139.0.0.0" version="28.1.2">
  <diagram name="PÃ¡gina-1" id="GKyJux3LDKkSeoH0DNlx">
    <mxGraphModel dx="1573" dy="1656" grid="1" gridSize="10" guides="1" tooltips="1" connect="1" arrows="1" fold="1" page="1" pageScale="1" pageWidth="827" pageHeight="1169" math="0" shadow="0">
      <root>
        <mxCell id="0" />
        <mxCell id="1" parent="0" />
        <mxCell id="VPY0M5oiPGhUkMEPeXPx-1" value="" style="group" parent="1" vertex="1" connectable="0">
          <mxGeometry x="280" y="-250" width="210" height="409" as="geometry" />
        </mxCell>
        <mxCell id="VPY0M5oiPGhUkMEPeXPx-2" value="- nombre: String&lt;div&gt;- direccion: String&lt;/div&gt;&lt;div&gt;- estadoCivil: Estado&lt;/div&gt;&lt;div&gt;- fechaNacimiento: LocalDate&lt;/div&gt;&lt;div&gt;- sueldoBasico: float&lt;/div&gt;&lt;div&gt;&lt;br&gt;&lt;/div&gt;&lt;div&gt;&lt;br&gt;&lt;/div&gt;" style="whiteSpace=wrap;html=1;align=left;" parent="VPY0M5oiPGhUkMEPeXPx-1" vertex="1">
          <mxGeometry y="49" width="210" height="101" as="geometry" />
        </mxCell>
        <mxCell id="VPY0M5oiPGhUkMEPeXPx-3" value="- &lt;u&gt;new(String nombre, String direccion, Estado estadoCivil, LocalDate fechaNacimiento, float sueldoBasico)&lt;/u&gt;&amp;nbsp;&lt;div&gt;+ edad(): int&lt;/div&gt;&lt;div&gt;+ tieneConyuge(): boolean&lt;br&gt;&lt;div&gt;+ sueldoBruto(): float&lt;/div&gt;&lt;div&gt;+ montoRetenciones(): float&lt;/div&gt;&lt;div&gt;+ sueldoNeto(): float&lt;/div&gt;&lt;/div&gt;&lt;div&gt;+ generarRecibo(): void&lt;/div&gt;&lt;div&gt;&lt;br&gt;&lt;/div&gt;" style="whiteSpace=wrap;html=1;align=left;" parent="VPY0M5oiPGhUkMEPeXPx-1" vertex="1">
          <mxGeometry y="150" width="210" height="180" as="geometry" />
        </mxCell>
        <mxCell id="VPY0M5oiPGhUkMEPeXPx-4" style="edgeStyle=orthogonalEdgeStyle;rounded=0;orthogonalLoop=1;jettySize=auto;html=1;exitX=0.5;exitY=0;exitDx=0;exitDy=0;strokeWidth=1;endSize=2;startSize=3;" parent="VPY0M5oiPGhUkMEPeXPx-1" source="VPY0M5oiPGhUkMEPeXPx-5" edge="1">
          <mxGeometry relative="1" as="geometry">
            <mxPoint x="80.10344827586209" y="-10.068965517241395" as="targetPoint" />
          </mxGeometry>
        </mxCell>
        <mxCell id="VPY0M5oiPGhUkMEPeXPx-5" value="&lt;i&gt;Empleado&lt;/i&gt;" style="rounded=0;whiteSpace=wrap;html=1;" parent="VPY0M5oiPGhUkMEPeXPx-1" vertex="1">
          <mxGeometry y="-10" width="210" height="60" as="geometry" />
        </mxCell>
        <mxCell id="VPY0M5oiPGhUkMEPeXPx-6" value="EMPLEADO" style="group" parent="1" vertex="1" connectable="0">
          <mxGeometry x="400" y="220" width="200" height="340" as="geometry" />
        </mxCell>
        <mxCell id="VPY0M5oiPGhUkMEPeXPx-7" value="Permanente" style="rounded=0;whiteSpace=wrap;html=1;" parent="VPY0M5oiPGhUkMEPeXPx-6" vertex="1">
          <mxGeometry width="200" height="60" as="geometry" />
        </mxCell>
        <mxCell id="VPY0M5oiPGhUkMEPeXPx-8" value="&lt;div&gt;- cantHijos: int&lt;/div&gt;&lt;div&gt;- antiguedad: int&lt;/div&gt;" style="whiteSpace=wrap;html=1;align=left;" parent="VPY0M5oiPGhUkMEPeXPx-6" vertex="1">
          <mxGeometry y="60" width="200" height="70" as="geometry" />
        </mxCell>
        <mxCell id="VPY0M5oiPGhUkMEPeXPx-9" value="&lt;span style=&quot;text-align: left;&quot;&gt;+ &lt;u&gt;new(int cantHijos, int antiguedad)&lt;/u&gt;&lt;/span&gt;" style="whiteSpace=wrap;html=1;" parent="VPY0M5oiPGhUkMEPeXPx-6" vertex="1">
          <mxGeometry y="130" width="200" height="70" as="geometry" />
        </mxCell>
        <mxCell id="VPY0M5oiPGhUkMEPeXPx-10" value="" style="group" parent="1" vertex="1" connectable="0">
          <mxGeometry x="170" y="220" width="190" height="380" as="geometry" />
        </mxCell>
        <mxCell id="VPY0M5oiPGhUkMEPeXPx-11" value="Temporario" style="rounded=0;whiteSpace=wrap;html=1;" parent="VPY0M5oiPGhUkMEPeXPx-10" vertex="1">
          <mxGeometry width="190" height="60" as="geometry" />
        </mxCell>
        <mxCell id="VPY0M5oiPGhUkMEPeXPx-12" value="&lt;div&gt;- fechaFinDesignacion: LocalDate&lt;/div&gt;&lt;div&gt;- cantHorasExtras: float&lt;/div&gt;" style="whiteSpace=wrap;html=1;align=left;" parent="VPY0M5oiPGhUkMEPeXPx-10" vertex="1">
          <mxGeometry y="60" width="190" height="70" as="geometry" />
        </mxCell>
        <mxCell id="VPY0M5oiPGhUkMEPeXPx-13" value="+ &lt;u&gt;new(LocalDate finContrato, float cantHorasExtras)&lt;/u&gt;" style="whiteSpace=wrap;html=1;align=left;" parent="VPY0M5oiPGhUkMEPeXPx-10" vertex="1">
          <mxGeometry y="130" width="190" height="70" as="geometry" />
        </mxCell>
        <mxCell id="VPY0M5oiPGhUkMEPeXPx-19" style="edgeStyle=orthogonalEdgeStyle;rounded=0;orthogonalLoop=1;jettySize=auto;html=1;entryX=0;entryY=0.594;entryDx=0;entryDy=0;entryPerimeter=0;" parent="1" source="VPY0M5oiPGhUkMEPeXPx-15" target="VPY0M5oiPGhUkMEPeXPx-2" edge="1">
          <mxGeometry relative="1" as="geometry" />
        </mxCell>
        <mxCell id="VPY0M5oiPGhUkMEPeXPx-24" value="" style="group" parent="1" vertex="1" connectable="0">
          <mxGeometry x="280" y="-550" width="300" height="240" as="geometry" />
        </mxCell>
        <mxCell id="VPY0M5oiPGhUkMEPeXPx-25" value="&lt;div&gt;- nombreEmpleado: String&lt;/div&gt;&lt;div&gt;- direccion: String&lt;/div&gt;&lt;div&gt;- fechaEmision: Localdate&lt;/div&gt;&lt;div&gt;- sueldoBruto: float&lt;/div&gt;&lt;div&gt;- sueldoNeto: float&lt;/div&gt;&lt;div&gt;- conceptos: String&lt;/div&gt;" style="whiteSpace=wrap;html=1;align=left;verticalAlign=middle;" parent="VPY0M5oiPGhUkMEPeXPx-24" vertex="1">
          <mxGeometry y="52.68" width="300" height="97.32" as="geometry" />
        </mxCell>
        <mxCell id="VPY0M5oiPGhUkMEPeXPx-26" value="+ &lt;u&gt;new&amp;nbsp;&lt;span style=&quot;background-color: transparent;&quot;&gt;(String nombreEmpleado, String direccion, LocalDate fechaEmision, float sueldoBruto, float sueldoNeto,&amp;nbsp;&lt;/span&gt;&lt;span style=&quot;background-color: transparent; color: light-dark(rgb(0, 0, 0), rgb(255, 255, 255));&quot;&gt;String conceptos)&lt;/span&gt;&lt;/u&gt;&lt;div&gt;+ desgloce(): String&lt;/div&gt;" style="whiteSpace=wrap;html=1;align=left;" parent="VPY0M5oiPGhUkMEPeXPx-24" vertex="1">
          <mxGeometry y="150" width="300" height="100" as="geometry" />
        </mxCell>
        <mxCell id="VPY0M5oiPGhUkMEPeXPx-27" value="ReciboDeSueldo" style="rounded=0;whiteSpace=wrap;html=1;" parent="VPY0M5oiPGhUkMEPeXPx-24" vertex="1">
          <mxGeometry width="300" height="52.68" as="geometry" />
        </mxCell>
        <mxCell id="VPY0M5oiPGhUkMEPeXPx-77" value="&lt;font style=&quot;font-size: 18px;&quot;&gt;*&lt;/font&gt;" style="text;html=1;align=center;verticalAlign=middle;whiteSpace=wrap;rounded=0;" parent="1" vertex="1">
          <mxGeometry x="230" y="-170" width="60" height="30" as="geometry" />
        </mxCell>
        <mxCell id="VPY0M5oiPGhUkMEPeXPx-78" value="&lt;font style=&quot;font-size: 18px;&quot;&gt;*&lt;/font&gt;" style="text;html=1;align=center;verticalAlign=middle;whiteSpace=wrap;rounded=0;" parent="1" vertex="1">
          <mxGeometry x="390" y="-580" width="60" height="30" as="geometry" />
        </mxCell>
        <mxCell id="VPY0M5oiPGhUkMEPeXPx-79" style="edgeStyle=orthogonalEdgeStyle;rounded=0;orthogonalLoop=1;jettySize=auto;html=1;entryX=0.427;entryY=-0.026;entryDx=0;entryDy=0;entryPerimeter=0;" parent="1" source="VPY0M5oiPGhUkMEPeXPx-17" target="VPY0M5oiPGhUkMEPeXPx-27" edge="1">
          <mxGeometry relative="1" as="geometry" />
        </mxCell>
        <mxCell id="VPY0M5oiPGhUkMEPeXPx-83" style="edgeStyle=orthogonalEdgeStyle;rounded=0;orthogonalLoop=1;jettySize=auto;html=1;endArrow=block;endFill=0;startSize=13;endSize=13;" parent="1" source="VPY0M5oiPGhUkMEPeXPx-11" target="VPY0M5oiPGhUkMEPeXPx-3" edge="1">
          <mxGeometry relative="1" as="geometry" />
        </mxCell>
        <mxCell id="VPY0M5oiPGhUkMEPeXPx-85" style="edgeStyle=orthogonalEdgeStyle;rounded=0;orthogonalLoop=1;jettySize=auto;html=1;entryX=0.75;entryY=1;entryDx=0;entryDy=0;endArrow=block;endFill=0;strokeWidth=1;endSize=13;startSize=13;" parent="1" source="VPY0M5oiPGhUkMEPeXPx-7" target="VPY0M5oiPGhUkMEPeXPx-3" edge="1">
          <mxGeometry relative="1" as="geometry" />
        </mxCell>
        <mxCell id="VPY0M5oiPGhUkMEPeXPx-86" value="" style="group" parent="1" vertex="1" connectable="0">
          <mxGeometry x="-220" y="-630" width="260" height="360" as="geometry" />
        </mxCell>
        <mxCell id="VPY0M5oiPGhUkMEPeXPx-15" value="&lt;div&gt;- nombre: String&lt;/div&gt;&lt;div&gt;- cuit: String&lt;/div&gt;- empleados: ArrayList&amp;lt;Empleado&amp;gt;&lt;div&gt;-&amp;nbsp;&lt;span style=&quot;background-color: transparent; color: light-dark(rgb(0, 0, 0), rgb(255, 255, 255));&quot;&gt;empleados: ArrayList&amp;lt;ReciboHaberes&amp;gt;&lt;/span&gt;&lt;/div&gt;" style="whiteSpace=wrap;html=1;align=left;" parent="VPY0M5oiPGhUkMEPeXPx-86" vertex="1">
          <mxGeometry y="60" width="260" height="110" as="geometry" />
        </mxCell>
        <mxCell id="VPY0M5oiPGhUkMEPeXPx-16" value="+ &lt;u&gt;new(String nombre, String cuit)&lt;/u&gt;&lt;div&gt;+ agregarEmpleado(Empleado empleado)&lt;/div&gt;&lt;div&gt;+ totalSueldosNetos(): float&lt;/div&gt;&lt;div&gt;+ totalSueldosBrutos(): float&lt;/div&gt;&lt;div&gt;+ totalRetenciones(): float&lt;/div&gt;&lt;div&gt;+ liquidarSueldos(): void&lt;/div&gt;&lt;div&gt;+ recibirRecibo(ReciboHaberes recibo): void&lt;/div&gt;" style="whiteSpace=wrap;html=1;align=left;" parent="VPY0M5oiPGhUkMEPeXPx-86" vertex="1">
          <mxGeometry y="170" width="260" height="130" as="geometry" />
        </mxCell>
        <mxCell id="VPY0M5oiPGhUkMEPeXPx-17" value="Empresa" style="rounded=0;whiteSpace=wrap;html=1;" parent="VPY0M5oiPGhUkMEPeXPx-86" vertex="1">
          <mxGeometry width="260" height="60" as="geometry" />
        </mxCell>
        <mxCell id="VPY0M5oiPGhUkMEPeXPx-87" value="" style="group" parent="1" vertex="1" connectable="0">
          <mxGeometry x="630" y="-260" width="300" height="240" as="geometry" />
        </mxCell>
        <mxCell id="VPY0M5oiPGhUkMEPeXPx-88" value="&lt;div&gt;- tieneConyuge: booleano&lt;/div&gt;" style="whiteSpace=wrap;html=1;align=left;verticalAlign=middle;" parent="VPY0M5oiPGhUkMEPeXPx-87" vertex="1">
          <mxGeometry y="52.68" width="220" height="57.32" as="geometry" />
        </mxCell>
        <mxCell id="VPY0M5oiPGhUkMEPeXPx-89" value="+ &lt;u&gt;new&amp;nbsp;&lt;span style=&quot;background-color: transparent;&quot;&gt;(boolean tieneConyuge&lt;/span&gt;&lt;span style=&quot;background-color: transparent; color: light-dark(rgb(0, 0, 0), rgb(255, 255, 255));&quot;&gt;)&lt;/span&gt;&lt;/u&gt;&lt;div&gt;+ getTieneConyuge(): boolean&lt;/div&gt;" style="whiteSpace=wrap;html=1;align=left;" parent="VPY0M5oiPGhUkMEPeXPx-87" vertex="1">
          <mxGeometry y="110" width="220" height="70" as="geometry" />
        </mxCell>
        <mxCell id="VPY0M5oiPGhUkMEPeXPx-90" value="Estado" style="rounded=0;whiteSpace=wrap;html=1;" parent="VPY0M5oiPGhUkMEPeXPx-87" vertex="1">
          <mxGeometry width="220" height="52.68" as="geometry" />
        </mxCell>
        <mxCell id="VPY0M5oiPGhUkMEPeXPx-91" style="edgeStyle=orthogonalEdgeStyle;rounded=0;orthogonalLoop=1;jettySize=auto;html=1;entryX=0.009;entryY=0.585;entryDx=0;entryDy=0;entryPerimeter=0;" parent="1" source="VPY0M5oiPGhUkMEPeXPx-5" target="VPY0M5oiPGhUkMEPeXPx-90" edge="1">
          <mxGeometry relative="1" as="geometry" />
        </mxCell>
        <mxCell id="VPY0M5oiPGhUkMEPeXPx-93" value="&lt;font style=&quot;font-size: 18px;&quot;&gt;*&lt;/font&gt;" style="text;html=1;align=center;verticalAlign=middle;whiteSpace=wrap;rounded=0;" parent="1" vertex="1">
          <mxGeometry x="470" y="-250" width="60" height="30" as="geometry" />
        </mxCell>
        <mxCell id="xQh85r9-B-TusZX7rGb7-1" value="recibos" style="text;html=1;align=center;verticalAlign=middle;whiteSpace=wrap;rounded=0;" parent="1" vertex="1">
          <mxGeometry x="220" y="-630" width="60" height="30" as="geometry" />
        </mxCell>
        <mxCell id="xQh85r9-B-TusZX7rGb7-3" value="empleados" style="text;html=1;align=center;verticalAlign=middle;whiteSpace=wrap;rounded=0;" parent="1" vertex="1">
          <mxGeometry x="100" y="-540" width="60" height="30" as="geometry" />
        </mxCell>
        <mxCell id="xQh85r9-B-TusZX7rGb7-6" value="estadoCivil" style="text;html=1;align=center;verticalAlign=middle;whiteSpace=wrap;rounded=0;" parent="1" vertex="1">
          <mxGeometry x="510" y="-260" width="60" height="30" as="geometry" />
        </mxCell>
      </root>
    </mxGraphModel>
  </diagram>
</mxfile>
